<?xml version="1.0" standalone="no"?>
<!DOCTYPE svg PUBLIC "-//W3C//DTD SVG 20010904//EN"
 "http://www.w3.org/TR/2001/REC-SVG-20010904/DTD/svg10.dtd">
<svg version="1.0" xmlns="http://www.w3.org/2000/svg"
 width="1080.000000pt" height="1080.000000pt" viewBox="0 0 1080.000000 1080.000000"
 preserveAspectRatio="xMidYMid meet">

<g transform="translate(0.000000,1080.000000) scale(0.100000,-0.100000)"
fill="#000000" stroke="none">
<path d="M5295 10154 c-427 -42 -707 -117 -1063 -284 -494 -233 -947 -627
-1239 -1075 -217 -334 -370 -700 -447 -1067 -53 -251 -61 -335 -61 -643 0
-380 21 -527 121 -869 82 -276 210 -551 369 -792 288 -434 641 -763 1092
-1016 779 -436 1715 -503 2568 -183 151 56 423 191 557 276 327 208 635 503
875 839 195 272 354 613 446 955 80 297 98 439 98 788 0 292 -5 367 -37 546
-89 494 -316 1000 -618 1376 -279 346 -624 627 -1021 830 -306 157 -607 251
-960 301 -105 14 -585 27 -680 18z m249 -60 c3 -9 11 -103 18 -209 l12 -193
105 -7 c58 -4 144 -11 190 -16 47 -4 87 -7 89 -4 8 8 32 120 32 152 0 37 -12
47 -45 39 -16 -4 -25 -15 -29 -36 -3 -16 -9 -44 -12 -61 l-6 -30 -71 6 c-40 3
-101 8 -136 11 l-63 6 7 160 c8 171 9 185 16 191 7 7 250 -12 354 -28 131 -20
298 -55 316 -65 14 -9 9 -37 -61 -294 -16 -61 -28 -112 -25 -114 8 -8 358
-122 374 -122 12 0 27 24 49 77 31 72 32 79 15 90 -31 24 -49 15 -73 -38 -13
-28 -28 -53 -33 -56 -4 -3 -62 14 -128 38 l-120 44 6 33 c10 55 83 276 98 295
12 18 17 17 113 -18 182 -68 490 -211 512 -237 9 -11 1 -32 -39 -99 -68 -114
-139 -248 -139 -264 0 -6 28 -29 62 -51 34 -21 107 -71 161 -112 112 -84 96
-85 170 12 43 57 45 66 16 92 -21 19 -21 19 -69 -35 l-47 -54 -99 73 c-55 40
-103 76 -108 81 -14 13 166 299 188 299 50 0 526 -386 526 -427 0 -7 -61 -76
-136 -153 l-135 -138 93 -113 c51 -62 110 -131 130 -154 l37 -40 36 19 c20 11
52 34 72 51 28 24 34 36 29 52 -11 33 -30 34 -77 2 -24 -16 -49 -29 -55 -29
-7 0 -49 40 -94 89 -67 75 -80 93 -71 108 5 10 62 70 126 133 l116 115 56 -60
c101 -109 363 -472 363 -503 0 -4 -80 -53 -177 -107 -98 -54 -179 -99 -181
-100 -1 -2 26 -60 61 -131 34 -71 73 -153 86 -183 22 -52 23 -53 57 -48 58 10
144 54 144 74 -1 43 -15 48 -75 29 -43 -13 -60 -15 -70 -6 -20 17 -105 191
-105 216 0 17 26 33 138 87 75 36 146 67 157 69 16 2 27 -12 57 -72 72 -144
180 -434 194 -517 l6 -42 -88 -26 c-218 -64 -285 -87 -290 -99 -8 -22 63 -368
77 -378 19 -13 136 -3 155 13 8 7 14 24 12 38 -3 25 -5 26 -69 23 l-66 -3 -16
94 c-9 51 -17 112 -17 134 l0 41 108 26 c59 14 133 29 165 34 55 9 59 8 67
-12 18 -49 65 -392 76 -563 l7 -103 -206 0 c-113 0 -208 -3 -210 -7 -7 -12
-41 -403 -35 -408 2 -3 45 -6 94 -7 l89 -3 0 30 c0 28 -3 31 -55 40 -55 11
-55 11 -58 50 -2 22 -1 82 3 133 l7 92 117 0 c65 0 146 -3 180 -6 l61 -7 0
-51 c0 -150 -78 -615 -104 -617 -34 -3 -87 7 -229 43 -103 26 -162 37 -168 31
-9 -9 -53 -129 -109 -295 -11 -32 -17 -65 -13 -74 7 -19 103 -64 137 -64 27 0
49 21 41 41 -3 8 -30 25 -60 38 -30 13 -55 26 -55 30 0 3 15 48 34 98 36 101
60 143 79 143 32 0 278 -76 302 -94 17 -12 17 -15 0 -67 -48 -146 -206 -500
-248 -553 -14 -19 -21 -16 -188 79 -96 54 -177 100 -181 102 -3 2 -56 -69
-117 -158 -125 -182 -124 -172 -40 -239 58 -46 69 -48 95 -19 21 23 23 20 -51
74 -37 28 -31 48 46 155 42 59 66 84 79 83 41 -5 290 -160 290 -181 0 -25 -94
-156 -276 -382 -119 -149 -126 -155 -156 -139 -13 7 -83 71 -155 142 l-132
130 -67 -59 c-37 -32 -103 -90 -148 -127 -44 -37 -80 -75 -80 -83 2 -17 83
-144 93 -144 5 0 39 20 59 36 2 1 -12 24 -32 50 -20 26 -36 52 -36 59 0 12
185 175 199 175 10 0 215 -229 226 -252 11 -25 -3 -38 -201 -192 -163 -127
-306 -219 -335 -214 -16 2 -44 41 -110 158 -49 85 -94 159 -101 163 -13 9 -63
-10 -261 -99 l-108 -49 6 -34 c10 -54 52 -141 69 -141 47 0 56 23 31 83 -8 20
-15 42 -15 50 0 15 194 117 222 117 18 0 43 -39 111 -175 59 -118 61 -133 19
-161 -86 -58 -545 -231 -583 -219 -19 6 -30 35 -79 215 -18 63 -38 125 -47
138 -16 26 -9 26 -228 -9 -191 -31 -176 -25 -170 -67 2 -20 7 -63 10 -94 6
-52 9 -58 29 -58 38 0 48 22 41 87 l-7 58 127 20 c69 11 130 18 135 15 12 -7
89 -311 83 -326 -11 -31 -302 -77 -568 -90 l-135 -7 0 206 0 206 -32 5 c-55 9
-261 26 -311 26 -58 0 -69 -17 -71 -114 -1 -70 -1 -71 26 -74 24 -3 28 1 37
35 5 21 11 49 13 63 3 21 9 25 43 28 55 5 198 -7 216 -18 11 -8 14 -34 12
-132 -2 -68 -5 -147 -9 -176 l-6 -53 -86 6 c-169 12 -529 72 -574 96 -12 6
-17 17 -13 32 20 94 57 243 73 294 11 33 16 66 13 71 -3 6 -51 25 -106 42 -55
18 -133 45 -173 61 -40 16 -79 29 -88 29 -17 0 -74 -116 -74 -149 0 -11 10
-25 21 -32 27 -14 41 0 58 60 12 41 14 43 44 37 18 -3 76 -20 130 -37 81 -26
97 -34 97 -51 0 -38 -83 -320 -96 -325 -30 -11 -475 177 -591 250 -33 21 -41
31 -35 45 4 10 44 84 90 165 52 90 82 154 80 168 -2 16 -47 54 -148 126 -79
56 -149 103 -155 103 -13 0 -63 -51 -93 -97 -31 -44 -29 -63 7 -63 22 0 37 10
61 40 17 22 36 40 41 40 6 0 42 -24 82 -53 40 -29 84 -60 100 -70 15 -10 27
-23 27 -31 0 -12 -148 -264 -172 -293 -13 -16 -129 62 -313 211 -174 139 -231
199 -219 225 5 11 66 78 137 149 70 71 127 132 127 137 0 7 -84 107 -135 161
-6 6 -35 41 -65 78 -29 36 -58 66 -62 66 -11 0 -71 -43 -110 -79 -32 -28 -34
-39 -14 -66 14 -19 16 -18 71 19 l56 39 47 -53 c91 -103 122 -150 113 -169
-21 -38 -233 -211 -260 -211 -26 0 -329 397 -381 499 -18 36 -19 46 -8 53 7 4
80 48 163 97 82 48 154 95 159 104 7 11 -8 54 -62 169 -40 84 -76 160 -81 168
-12 21 -75 15 -131 -12 -46 -24 -57 -42 -41 -68 9 -12 16 -13 58 -1 84 24 81
25 129 -79 67 -148 68 -137 -28 -192 -46 -25 -116 -62 -155 -82 l-73 -36 -24
48 c-57 113 -205 488 -220 559 -7 28 -4 33 22 47 17 9 103 36 192 60 89 25
165 47 168 50 5 6 -64 385 -72 393 -2 2 -43 1 -90 -3 l-87 -7 3 -36 3 -36 66
3 66 4 17 -109 c10 -59 19 -118 22 -131 3 -17 -2 -25 -20 -32 -37 -14 -310
-68 -318 -63 -24 14 -87 469 -88 631 l0 52 205 0 c204 0 205 0 209 23 3 12 12
96 21 187 9 91 17 174 18 185 2 17 -6 21 -48 27 -92 12 -135 9 -142 -8 -7 -20
8 -48 28 -51 8 -1 31 -4 52 -8 l37 -6 -1 -77 c-1 -42 -4 -103 -8 -136 l-6 -59
-110 2 c-60 1 -140 4 -177 7 l-68 7 0 61 c0 104 41 399 76 549 14 58 19 67 39
67 12 0 104 -20 205 -45 100 -25 183 -45 185 -43 5 7 125 357 125 366 0 11
-131 82 -152 82 -17 0 -43 -50 -31 -60 4 -4 32 -15 61 -26 28 -10 52 -20 52
-23 -1 -4 -20 -60 -43 -126 -30 -84 -47 -121 -59 -123 -10 -2 -90 18 -178 44
-159 47 -161 48 -155 74 23 96 220 538 262 589 l20 24 173 -98 173 -98 29 34
c41 49 198 284 198 297 0 15 -112 102 -131 102 -9 0 -22 -7 -29 -15 -11 -14
-6 -23 35 -65 l47 -48 -33 -49 c-18 -26 -52 -74 -77 -106 l-43 -57 -60 31
c-91 49 -223 142 -227 160 -7 37 224 343 355 471 l68 66 149 -144 150 -144 40
38 c23 21 70 63 106 93 35 30 76 64 90 76 14 12 35 30 48 40 l23 18 -44 60
c-58 80 -70 89 -96 75 -29 -15 -26 -38 13 -89 l33 -44 -101 -90 -100 -90 -123
129 c-68 71 -123 134 -123 139 2 34 501 405 546 405 7 0 59 -76 114 -170 56
-93 107 -170 113 -170 7 0 90 36 185 81 119 57 172 87 171 98 0 9 -13 45 -27
81 -24 56 -31 65 -56 68 -44 5 -48 -8 -25 -77 12 -35 18 -66 13 -70 -5 -5 -56
-29 -114 -55 -83 -37 -106 -44 -116 -34 -24 25 -144 245 -150 275 -5 26 -2 32
29 50 93 55 467 205 545 218 36 6 42 4 57 -18 12 -19 95 -308 95 -332 0 -2 7
-10 14 -18 13 -13 39 -10 201 18 102 17 189 36 194 41 8 9 -2 142 -13 171 -8
19 -44 16 -55 -6 -6 -10 -8 -41 -5 -69 3 -27 2 -52 -3 -55 -7 -4 -232 -47
-246 -47 -17 0 -87 257 -87 318 0 25 5 35 23 41 64 24 414 68 558 70 71 1 88
-2 93 -15z"/>
<path d="M5300 10019 c-128 -11 -309 -40 -315 -49 -8 -12 23 -160 36 -176 14
-18 68 -18 74 -1 3 7 2 40 -3 74 l-9 62 41 6 c23 4 83 7 135 8 l95 2 7 -35 c5
-19 11 -94 15 -166 l7 -131 -54 -7 c-118 -15 -309 -49 -407 -73 -57 -14 -105
-23 -106 -21 -2 1 -25 75 -51 163 -54 183 -68 215 -94 215 -49 0 -399 -142
-408 -166 -5 -14 75 -174 88 -174 4 0 20 11 36 24 l28 24 -23 46 c-12 26 -22
53 -22 60 0 13 98 54 208 87 37 11 45 10 53 -2 14 -22 90 -241 96 -275 5 -31
4 -32 -73 -64 -44 -17 -151 -67 -240 -110 -88 -43 -170 -80 -181 -84 -22 -7
-34 9 -163 214 -29 47 -59 91 -65 98 -10 11 -33 0 -123 -61 -138 -94 -252
-184 -252 -200 0 -19 108 -147 124 -147 16 0 46 32 46 49 0 8 -16 35 -35 61
l-34 47 32 24 c98 72 180 129 187 129 9 0 134 -172 170 -232 12 -21 20 -42 18
-47 -1 -4 -48 -43 -103 -86 -103 -80 -253 -211 -292 -255 -20 -23 -23 -24 -47
-10 -14 8 -84 69 -156 135 -73 66 -136 120 -140 120 -10 0 -199 -229 -246
-299 -18 -28 -34 -56 -34 -62 0 -12 67 -62 118 -88 24 -13 37 -14 52 -6 34 18
25 55 -20 87 -22 15 -40 35 -40 44 0 18 67 112 124 173 40 43 28 46 126 -33
81 -66 160 -144 160 -158 0 -7 -44 -72 -98 -145 -54 -73 -124 -175 -156 -225
-32 -51 -62 -93 -68 -93 -5 0 -83 38 -172 85 -90 47 -170 85 -179 85 -30 0
-177 -325 -177 -391 0 -26 6 -33 47 -51 69 -30 123 -35 140 -13 22 32 15 44
-48 75 -52 27 -59 34 -54 53 11 36 86 211 94 220 8 8 165 -58 247 -103 74 -41
74 -29 -4 -232 -39 -100 -80 -215 -91 -254 -12 -40 -27 -77 -34 -83 -10 -7
-43 -4 -123 15 -222 51 -252 57 -266 51 -18 -7 -68 -300 -68 -400 l0 -67 58 0
c31 0 74 3 95 6 34 6 37 9 37 40 0 31 -3 34 -29 34 -15 0 -42 5 -60 11 -37 13
-38 26 -13 174 15 86 20 100 37 103 21 3 303 -53 312 -62 2 -2 -3 -75 -11
-162 -9 -87 -16 -199 -16 -250 0 -112 -7 -152 -29 -158 -9 -3 -101 -10 -206
-17 -104 -6 -191 -12 -193 -14 -4 -3 27 -278 39 -350 16 -95 16 -95 57 -95 38
0 149 23 159 33 3 3 1 18 -4 34 -10 27 -12 28 -79 28 l-69 0 -12 90 c-6 50
-12 111 -12 136 l-1 46 43 6 c24 3 101 9 173 13 l130 7 12 -104 c7 -57 26
-177 44 -266 26 -132 30 -166 20 -187 -9 -21 -33 -32 -159 -72 -184 -58 -193
-62 -193 -89 0 -39 105 -318 146 -389 11 -18 13 -19 55 -2 73 29 119 63 119
90 0 42 -21 49 -84 25 -36 -14 -60 -19 -66 -13 -16 16 -92 225 -87 238 5 14
168 78 255 100 63 17 59 22 127 -133 25 -58 77 -164 115 -237 l69 -133 -92
-57 c-51 -31 -108 -67 -127 -79 -81 -50 -120 -78 -120 -86 0 -28 254 -369 275
-369 19 0 135 110 135 129 0 45 -47 53 -97 15 -18 -14 -41 -24 -51 -22 -18 3
-161 184 -162 205 0 12 261 193 279 193 5 0 46 -48 92 -106 45 -59 126 -156
180 -217 l98 -110 -19 -26 c-10 -14 -72 -82 -138 -151 l-120 -125 47 -43 c91
-85 306 -252 324 -252 2 0 28 36 57 80 51 78 52 81 35 100 -28 31 -51 24 -91
-27 -20 -27 -41 -47 -47 -45 -25 7 -197 156 -197 170 0 15 65 98 163 207 63
69 44 73 187 -44 46 -38 141 -104 210 -147 69 -43 127 -79 129 -80 2 -2 -35
-80 -83 -174 -47 -94 -86 -181 -86 -194 0 -20 13 -30 93 -64 221 -97 289 -123
305 -120 19 4 77 160 68 184 -7 17 -62 19 -73 2 -4 -7 -15 -31 -23 -53 -9 -22
-23 -41 -33 -43 -23 -5 -227 97 -235 116 -6 16 57 149 115 245 27 44 39 57 52
51 134 -56 368 -140 456 -163 69 -19 68 -10 24 -201 -21 -96 -38 -186 -37
-200 2 -19 12 -27 44 -36 57 -17 277 -44 352 -44 l62 0 0 94 c0 100 -5 111
-48 95 -26 -10 -42 -46 -42 -95 0 -40 -2 -41 -134 -19 -116 19 -125 22 -132
49 -9 39 38 280 61 304 10 11 33 10 131 -2 65 -8 162 -17 214 -21 52 -3 125
-8 163 -11 l67 -6 0 -112 c0 -112 14 -284 24 -294 7 -6 282 23 375 40 35 7 65
18 68 25 7 19 -17 149 -31 168 -9 13 -20 16 -45 10 l-32 -7 7 -72 6 -73 -92
-6 c-159 -12 -177 -10 -184 16 -3 12 -9 90 -12 172 l-7 150 144 18 c79 10 202
31 274 47 71 17 134 30 140 30 5 0 25 -53 44 -118 72 -246 76 -257 98 -260 36
-5 423 146 423 165 -1 16 -85 166 -96 170 -6 2 -21 -5 -34 -15 -23 -19 -23
-20 -7 -61 31 -77 28 -82 -81 -123 -142 -53 -137 -52 -156 -23 -22 34 -85 221
-88 265 -3 33 -1 35 57 58 33 13 147 66 253 119 108 54 196 92 201 87 4 -5 54
-82 110 -171 57 -90 107 -163 111 -163 20 0 346 246 354 267 8 19 -13 52 -72
116 l-45 48 -29 -28 c-15 -15 -28 -32 -28 -38 0 -6 18 -29 40 -50 22 -21 40
-42 40 -45 0 -12 -201 -155 -218 -155 -15 0 -133 156 -186 247 l-16 27 122 97
c68 53 167 137 221 187 l97 89 73 -65 c39 -36 101 -93 137 -126 88 -82 95 -84
145 -29 59 66 225 288 225 303 0 25 -111 105 -146 105 -21 0 -54 -28 -54 -47
0 -5 20 -24 45 -42 25 -18 45 -40 45 -49 0 -14 -113 -168 -150 -206 -5 -5 -64
39 -139 104 l-129 112 106 141 c59 78 118 160 131 182 62 102 85 135 98 135 8
0 90 -38 184 -85 93 -47 172 -85 177 -85 18 0 182 375 182 415 0 15 -82 52
-136 61 -32 5 -43 2 -59 -16 -26 -29 -13 -48 54 -72 49 -19 52 -22 46 -47 -9
-37 -90 -207 -103 -215 -19 -12 -302 120 -302 141 0 7 22 68 49 135 27 68 67
183 90 256 40 125 43 132 68 132 15 0 105 -16 201 -36 132 -27 176 -33 182
-24 14 23 77 437 67 446 -5 5 -154 19 -174 16 -19 -3 -23 -10 -23 -42 0 -44
10 -50 77 -50 l46 0 -6 -62 c-3 -35 -11 -98 -18 -140 -13 -92 -7 -89 -152 -58
-143 32 -197 50 -197 69 0 9 7 88 15 176 8 88 15 206 15 261 0 85 3 103 16
108 9 4 106 9 215 13 133 4 199 10 199 17 0 25 -40 355 -48 399 -5 26 -13 51
-16 55 -10 9 -179 -27 -187 -40 -4 -6 -3 -22 0 -37 7 -23 13 -26 57 -28 27 -1
57 -2 66 -2 24 -1 38 -62 41 -168 2 -84 1 -88 -23 -100 -15 -7 -90 -15 -170
-19 l-145 -7 -22 159 c-12 87 -35 212 -50 278 -26 113 -27 119 -9 131 10 8 77
32 149 55 203 64 202 63 205 98 5 44 -138 412 -160 412 -12 0 -141 -70 -157
-85 -12 -11 -12 -19 -1 -44 14 -35 16 -36 61 -17 77 31 76 32 105 -26 28 -54
74 -172 74 -187 0 -10 -111 -58 -212 -90 -107 -35 -114 -32 -156 74 -20 50
-71 159 -114 243 -43 83 -78 157 -78 162 0 10 102 79 253 170 48 28 87 54 87
57 0 10 -147 219 -204 291 -40 49 -65 72 -80 72 -21 0 -149 -99 -148 -114 1
-4 12 -21 27 -37 l25 -31 49 36 c27 20 53 36 58 36 9 0 99 -106 142 -167 l22
-33 -27 -25 c-30 -27 -224 -162 -247 -171 -9 -3 -39 28 -86 91 -39 53 -111
137 -159 188 -48 50 -99 105 -114 121 l-28 29 93 99 c50 54 114 124 141 154
48 54 48 55 30 76 -24 26 -333 268 -344 268 -4 0 -26 -24 -48 -52 -70 -94 -78
-121 -36 -140 25 -12 29 -9 73 40 l46 53 100 -81 c55 -45 104 -85 109 -90 9
-9 -201 -258 -219 -259 -5 -1 -64 39 -131 87 -66 48 -170 119 -230 157 -60 38
-111 70 -113 71 -2 2 40 83 93 180 53 97 96 180 96 184 0 19 -370 180 -414
180 -26 0 -26 0 -62 -104 -13 -39 -21 -73 -17 -77 5 -4 22 -10 39 -13 36 -8
44 0 69 66 l17 46 52 -18 c57 -19 175 -76 190 -90 13 -13 -129 -300 -148 -300
-8 0 -76 24 -153 54 -76 30 -185 68 -243 86 -58 17 -111 38 -119 45 -11 11 -7
43 29 205 23 105 40 193 38 196 -7 7 -297 54 -373 61 -85 7 -92 1 -95 -77 -4
-100 -2 -110 27 -121 35 -13 48 3 57 70 4 31 12 51 22 55 16 6 125 -7 207 -25
38 -9 47 -15 47 -32 0 -24 -34 -204 -52 -274 -10 -43 -12 -44 -42 -39 -46 8
-207 24 -316 31 -149 9 -200 16 -216 32 -11 12 -14 52 -14 204 l0 189 -32 -1
c-18 -1 -76 -6 -128 -10z m455 -479 c709 -66 1329 -407 1747 -960 251 -334
409 -709 475 -1130 25 -160 25 -547 0 -710 -68 -442 -240 -835 -514 -1175
-138 -171 -367 -383 -543 -504 -445 -305 -1047 -461 -1585 -411 -447 42 -892
212 -1245 474 -108 80 -385 352 -479 469 -205 257 -366 592 -446 927 -154 650
-45 1321 307 1883 300 480 765 842 1319 1027 288 97 655 138 964 110z"/>
<path d="M5580 9041 c-14 -4 24 -7 85 -7 60 0 98 3 85 7 -33 9 -138 9 -170 0z"/>
<path d="M5470 9020 c-10 -6 -2 -7 25 -3 49 7 58 13 19 13 -16 0 -36 -5 -44
-10z"/>
<path d="M5798 9018 c12 -6 22 -15 22 -20 0 -11 -41 -47 -54 -48 -12 0 -94
-66 -124 -99 -59 -64 -80 -155 -112 -471 -31 -305 -53 -532 -75 -775 -13 -148
-35 -349 -49 -445 -13 -96 -32 -272 -40 -390 -25 -330 -26 -338 -42 -315 -8
11 -31 69 -50 130 -34 104 -42 129 -77 251 -16 58 -68 176 -74 170 -2 -2 7
-32 21 -67 14 -35 46 -132 71 -216 47 -158 85 -264 111 -315 15 -29 12 -78 -4
-78 -14 0 -106 177 -167 320 -109 256 -228 466 -324 570 -39 43 -39 41 10 -25
117 -160 213 -337 314 -580 25 -60 74 -159 108 -220 l61 -110 12 -130 11 -130
2 192 c0 105 7 274 15 375 8 101 17 221 21 268 3 47 17 163 30 257 14 95 28
204 31 243 4 38 10 70 13 70 12 0 71 -66 71 -79 0 -9 5 -7 16 4 11 11 25 14
42 10 13 -3 48 -1 78 5 71 15 111 56 120 121 5 37 11 49 28 53 24 6 56 54 56
85 0 11 -9 43 -20 71 -15 38 -17 56 -10 70 17 32 52 50 97 50 117 0 175 33
189 109 11 59 15 62 133 59 132 -4 178 15 238 95 54 73 76 82 209 82 96 0 115
3 133 19 20 18 22 18 39 3 10 -10 23 -17 29 -17 14 0 43 34 43 50 0 9 -8 5
-22 -10 l-21 -23 -18 22 c-22 27 -27 27 -62 -6 -28 -27 -31 -28 -135 -25 -127
3 -149 -6 -212 -86 -26 -33 -58 -61 -83 -73 -65 -29 -75 -24 -36 19 20 20 44
49 55 63 10 14 22 25 26 25 4 -1 24 16 45 36 49 48 90 64 185 73 74 6 80 9
129 53 29 26 60 65 70 87 l19 40 0 -40 c0 -59 -36 -106 -115 -148 -16 -9 -24
-16 -17 -17 26 0 102 52 122 84 26 43 32 113 13 149 -13 26 -13 30 4 44 16 13
16 14 1 9 -24 -7 -56 29 -64 73 -8 44 -38 97 -61 105 -9 4 -38 2 -63 -5 -41
-10 -54 -9 -110 10 -35 11 -84 21 -109 21 -25 1 -57 7 -71 15 -14 8 -34 14
-45 15 -11 0 -33 12 -50 26 -105 91 -385 213 -462 201 -27 -4 -27 -4 3 -6 41
-1 262 -92 346 -142 88 -52 133 -90 117 -99 -7 -5 -41 12 -83 40 -39 26 -93
59 -121 72 -65 33 -228 85 -285 92 -43 5 -44 5 -10 -5 196 -56 301 -100 403
-169 92 -62 75 -74 -29 -22 -108 54 -357 142 -369 130 -3 -2 51 -23 119 -45
134 -45 306 -120 306 -135 0 -24 -40 -15 -172 38 -147 58 -305 108 -384 120
-24 3 -44 9 -44 13 0 19 129 121 153 121 23 0 23 55 1 64 -27 10 -40 5 -16 -6z
m32 -237 c100 -30 280 -97 343 -127 28 -14 34 -20 26 -31 -16 -19 -33 -16 -97
16 -88 44 -304 111 -407 126 -52 7 -25 -10 30 -19 84 -14 268 -75 370 -121
l59 -27 -27 -24 c-35 -30 -41 -30 -118 5 -83 37 -236 91 -257 90 -9 0 28 -15
82 -34 54 -19 128 -48 164 -65 58 -27 64 -32 51 -46 -13 -13 -24 -11 -90 16
-96 40 -235 80 -274 80 -16 -1 17 -13 75 -28 126 -33 240 -80 240 -98 0 -26
-45 -25 -125 4 -44 16 -131 38 -192 48 -105 17 -113 20 -113 41 0 27 16 38 55
35 33 -2 26 3 -19 13 -30 6 -30 1 -11 89 2 10 8 23 13 30 5 6 12 24 16 40 7
28 8 29 59 22 29 -3 95 -19 147 -35z m590 -91 c0 -4 -7 -23 -15 -43 -18 -43
-56 -72 -131 -97 -72 -25 -81 -33 -109 -97 -33 -73 -66 -92 -153 -85 -111 7
-183 -37 -238 -148 -14 -30 -38 -70 -51 -88 -24 -32 -26 -33 -81 -27 -54 6
-58 5 -86 -24 -36 -37 -29 -53 7 -17 39 39 107 33 107 -8 0 -26 -15 -46 -50
-70 -15 -10 -19 -16 -10 -16 26 0 70 49 70 78 0 19 8 32 30 44 19 11 41 41 66
90 66 132 117 168 241 168 58 0 85 5 103 17 36 25 58 54 65 84 8 36 53 75 95
83 62 11 112 47 137 99 24 47 24 47 74 47 59 0 71 -17 46 -64 l-17 -31 20 24
c11 13 20 30 20 38 0 12 8 14 37 10 35 -6 53 -20 53 -42 0 -21 -42 -77 -70
-93 -39 -22 -39 -37 -1 -17 39 20 69 59 77 101 7 38 18 42 46 17 46 -41 -3
-120 -99 -160 -47 -20 -60 -39 -15 -22 104 39 165 114 142 175 -14 37 -6 41
24 11 72 -73 -14 -222 -149 -258 -25 -7 -23 -8 13 -5 83 8 162 96 170 191 4
47 1 57 -21 79 -15 14 -21 26 -15 26 23 0 49 -35 65 -89 8 -31 24 -68 34 -83
36 -51 18 -116 -51 -185 -44 -44 -54 -48 -168 -57 -72 -7 -111 -24 -149 -66
-38 -44 -40 -28 -3 24 38 53 58 61 168 75 86 11 131 33 153 72 7 14 -4 9 -36
-16 -26 -19 -52 -35 -58 -36 -87 -4 -173 -20 -195 -36 -15 -10 -51 -55 -80
-98 -94 -142 -128 -167 -214 -158 -72 7 -96 -6 -104 -59 -4 -23 -19 -54 -34
-71 -24 -28 -34 -31 -116 -37 -49 -4 -91 -6 -93 -4 -6 6 64 44 82 44 27 0 75
28 87 49 5 11 10 38 10 60 0 63 40 91 131 91 62 0 89 23 89 78 0 57 44 93 130
106 24 4 58 17 75 30 32 25 83 106 66 106 -6 0 -17 -13 -25 -29 -20 -37 -70
-80 -104 -86 -114 -24 -152 -51 -152 -110 0 -55 -35 -85 -100 -85 -84 0 -139
-42 -126 -96 11 -41 -18 -82 -67 -94 -106 -27 -147 -73 -147 -167 0 -48 -28
-124 -50 -138 -6 -4 -22 -4 -36 -1 -19 5 -24 13 -24 39 0 18 6 39 13 46 10 10
9 11 -5 6 -13 -5 -18 -18 -18 -44 0 -45 14 -61 56 -61 29 0 35 6 57 50 27 53
37 55 37 5 0 -63 -77 -103 -138 -71 -59 31 -77 82 -46 134 l16 27 -21 -24
c-32 -36 -29 -95 8 -132 16 -16 37 -29 45 -29 22 0 20 -32 -4 -58 -30 -32 -91
-30 -137 5 -32 24 -34 25 -23 6 19 -30 52 -43 109 -43 50 0 76 17 82 54 7 35
29 30 29 -6 0 -41 -19 -69 -64 -97 -42 -26 -150 -29 -184 -5 -26 18 -52 65
-52 94 0 33 28 78 58 94 23 13 24 15 7 16 -11 0 -31 -7 -43 -16 -22 -15 -22
-15 -22 28 1 75 20 179 38 203 20 28 75 57 152 79 30 9 64 24 75 34 31 26 65
78 65 99 -1 12 -7 6 -20 -18 -24 -46 -82 -97 -118 -104 -70 -15 -103 -27 -130
-50 -17 -14 -33 -25 -37 -25 -11 0 6 94 20 109 7 7 28 17 46 22 32 8 31 8 -8
4 -23 -3 -44 -2 -46 2 -2 5 3 73 12 153 l16 145 28 3 c27 3 38 -12 15 -21 -7
-3 -4 -6 8 -6 46 -2 239 110 568 331 197 132 221 145 242 136 13 -6 24 -14 24
-18z m-655 -175 c114 -29 168 -51 162 -67 -6 -19 -60 -14 -172 15 -55 15 -121
29 -147 32 -37 5 -48 10 -48 24 0 10 3 20 6 24 10 9 100 -3 199 -28z m8 -72
c48 -14 87 -30 87 -34 0 -5 -11 -16 -25 -25 -23 -15 -29 -14 -87 5 -35 11 -91
25 -126 32 -69 13 -78 20 -63 47 9 17 17 18 68 10 32 -4 97 -20 146 -35z
m-108 -44 c43 -11 87 -25 98 -30 18 -10 18 -11 -2 -26 -19 -13 -32 -12 -116 3
-93 18 -95 19 -95 46 0 34 9 35 115 7z m10 -73 l30 -13 -33 -20 c-28 -17 -39
-19 -82 -10 -42 8 -50 13 -50 32 0 12 3 25 7 29 10 9 88 -2 128 -18z"/>
<path d="M6431 8554 c-12 -15 -21 -33 -21 -40 0 -28 -72 -93 -123 -113 -29
-11 -44 -20 -34 -20 29 -1 100 35 129 66 14 15 33 46 42 68 9 22 24 46 33 53
9 6 12 12 6 12 -7 0 -21 -12 -32 -26z"/>
<path d="M6491 8471 c-11 -11 -25 -38 -32 -60 -16 -54 -39 -72 -101 -82 -53
-9 -98 -34 -106 -60 -4 -10 0 -10 14 3 26 23 87 48 117 48 38 0 76 37 88 86 7
26 22 53 37 64 13 11 20 20 13 20 -6 0 -20 -9 -30 -19z"/>
<path d="M6116 8294 c-35 -44 -114 -81 -188 -89 -69 -8 -110 -40 -127 -100
-12 -46 -6 -60 9 -19 29 81 55 101 153 114 66 10 138 48 170 92 31 41 16 43
-17 2z"/>
<path d="M6173 8212 c-18 -46 -50 -67 -118 -76 -115 -16 -157 -50 -204 -162
-50 -117 -82 -146 -191 -168 -28 -6 -100 -62 -100 -78 0 -5 18 6 40 25 26 22
59 38 95 46 78 17 111 50 160 156 62 133 78 146 226 175 62 12 89 35 107 88
15 45 4 40 -15 -6z"/>
<path d="M5302 8994 c31 -15 58 -34 60 -43 3 -15 4 -15 10 0 5 12 -6 23 -42
43 -26 14 -56 26 -66 26 -11 0 7 -12 38 -26z"/>
<path d="M5213 9000 c-13 -5 -23 -14 -23 -20 0 -6 11 -3 25 6 14 9 25 18 25
20 0 5 0 5 -27 -6z"/>
<path d="M5395 8990 c-3 -5 -2 -10 4 -10 5 0 13 5 16 10 3 6 2 10 -4 10 -5 0
-13 -4 -16 -10z"/>
<path d="M5155 8960 c-3 -6 1 -7 9 -4 18 7 21 14 7 14 -6 0 -13 -4 -16 -10z"/>
<path d="M4995 8870 c-3 -6 1 -7 9 -4 18 7 21 14 7 14 -6 0 -13 -4 -16 -10z"/>
<path d="M4824 8821 c-21 -16 -53 -46 -70 -68 -55 -69 -48 -69 16 0 35 38 77
74 94 82 17 7 24 14 15 14 -8 1 -33 -12 -55 -28z"/>
<path d="M4976 8717 c3 -10 9 -15 12 -12 3 3 0 11 -7 18 -10 9 -11 8 -5 -6z"/>
<path d="M5000 8650 c0 -8 5 -22 10 -30 9 -13 10 -13 10 0 0 8 -5 22 -10 30
-9 13 -10 13 -10 0z"/>
<path d="M5303 8625 c0 -22 2 -30 4 -17 2 12 2 30 0 40 -3 9 -5 -1 -4 -23z"/>
<path d="M4586 8598 c-30 -17 -84 -79 -103 -118 -9 -19 -19 -64 -21 -100 -2
-36 -10 -72 -18 -81 -7 -8 -44 -31 -80 -50 -86 -43 -158 -114 -190 -183 -59
-130 -68 -302 -23 -433 20 -58 37 -81 106 -154 46 -47 83 -93 83 -102 0 -11 5
-14 17 -10 10 4 14 2 10 -4 -3 -5 7 -23 23 -38 17 -16 30 -33 30 -37 0 -5 16
-22 35 -39 19 -17 35 -40 35 -52 0 -11 3 -17 7 -14 13 14 33 -17 34 -52 0 -23
3 -30 7 -19 16 40 72 -43 73 -109 2 -45 2 -46 8 -13 l7 35 42 -65 c37 -56 42
-70 38 -105 -3 -22 -3 -31 0 -20 3 11 10 24 14 28 13 14 60 -76 60 -114 0 -24
3 -30 9 -20 7 11 14 7 30 -20 12 -19 21 -46 21 -61 0 -18 5 -28 14 -28 22 0
33 -49 24 -103 -5 -27 -7 -54 -5 -60 2 -7 7 7 11 31 4 23 11 42 16 42 4 0 18
-25 30 -55 16 -41 20 -65 15 -92 -6 -35 -5 -36 8 -19 13 18 15 16 31 -32 12
-34 16 -67 12 -95 -4 -26 -3 -35 2 -23 14 32 22 5 37 -126 28 -234 16 -302
-58 -333 -66 -27 -185 21 -171 69 4 17 3 18 -6 6 -9 -13 -13 -12 -30 9 -11 13
-20 29 -20 37 0 7 -9 28 -19 46 -11 18 -25 54 -32 81 -6 26 -15 50 -20 53 -5
3 -9 13 -9 23 0 10 -9 30 -20 44 -15 19 -20 42 -22 94 -2 65 -2 65 -5 14 l-4
-53 -25 23 c-16 15 -24 34 -25 58 -1 29 -2 32 -7 13 l-7 -23 -40 33 c-62 52
-132 78 -207 78 -30 0 -37 4 -41 23 -4 22 -4 22 -6 0 -1 -16 -13 -26 -47 -39
-140 -53 -224 -186 -224 -355 0 -253 214 -393 394 -256 33 26 34 26 90 11 79
-21 224 -85 331 -146 152 -88 255 -166 370 -283 l111 -112 101 -32 c56 -17
107 -31 115 -30 7 0 -36 16 -96 35 -59 19 -112 36 -116 39 -4 2 -25 41 -45 85
-21 44 -40 78 -42 76 -3 -2 5 -23 17 -46 12 -23 19 -44 17 -47 -3 -2 -25 17
-49 43 -100 109 -292 245 -464 329 -113 56 -242 105 -277 105 -17 0 -19 4 -11
38 32 149 -21 250 -139 262 l-52 5 38 42 c47 52 111 78 193 78 74 0 124 -24
152 -74 11 -20 38 -84 60 -142 69 -183 115 -231 231 -237 61 -4 70 -2 98 22
18 15 35 36 38 46 8 25 22 26 28 3 2 -10 3 -7 1 7 -2 14 -10 95 -19 180 -8 85
-22 191 -31 235 -41 214 -226 591 -429 870 -28 39 -64 93 -79 120 -17 29 -93
114 -181 200 -89 88 -159 166 -169 188 -58 128 -56 305 5 442 36 80 127 168
209 202 19 8 43 22 53 31 9 8 19 13 21 11 2 -2 23 -42 47 -89 24 -47 77 -148
119 -225 42 -77 96 -176 120 -220 23 -44 70 -129 105 -190 65 -115 102 -182
168 -303 21 -40 42 -71 44 -68 3 3 -15 42 -40 88 -48 89 -52 96 -193 349 -51
91 -114 206 -140 255 -26 49 -61 114 -79 144 -18 30 -57 102 -86 160 -51 100
-54 109 -54 181 0 73 2 80 39 133 22 31 53 68 70 81 33 26 34 32 2 13z m-155
-2292 c52 -25 85 -50 121 -92 16 -19 15 -19 -70 -19 -77 0 -94 -4 -147 -30
-72 -36 -96 -67 -101 -131 -3 -38 -2 -44 5 -27 42 95 191 -4 191 -127 0 -157
-203 -236 -327 -127 -146 128 -117 426 52 538 22 14 54 31 70 37 48 18 146 8
206 -22z"/>
<path d="M5030 8564 c0 -5 13 -62 30 -127 45 -180 109 -682 82 -652 -5 6 -28
129 -51 275 -44 276 -72 405 -91 424 -6 6 -4 -9 5 -34 28 -79 135 -758 135
-857 0 -28 5 -55 10 -58 15 -9 12 307 -4 465 -20 188 -40 307 -76 445 -28 108
-40 144 -40 119z"/>
<path d="M5293 8425 c0 -38 2 -53 4 -32 2 20 2 52 0 70 -2 17 -4 1 -4 -38z"/>
<path d="M4621 8299 c-1 -4 12 -35 28 -70 16 -35 48 -107 71 -159 24 -52 62
-135 85 -185 23 -49 52 -114 65 -142 28 -62 41 -63 15 -1 -71 168 -263 572
-264 557z"/>
<path d="M5342 8255 c0 -16 2 -22 5 -12 2 9 2 23 0 30 -3 6 -5 -1 -5 -18z"/>
<path d="M4412 8165 c0 -11 3 -29 8 -40 11 -25 11 1 0 35 -6 20 -8 21 -8 5z"/>
<path d="M5353 8130 c0 -30 2 -43 4 -27 2 15 2 39 0 55 -2 15 -4 2 -4 -28z"/>
<path d="M6796 8125 c26 -86 43 -209 39 -285 l-4 -85 11 85 c9 70 8 98 -5 161
-9 42 -23 91 -32 110 -8 19 -13 25 -9 14z"/>
<path d="M4431 8094 c-1 -15 65 -177 106 -258 96 -190 293 -515 335 -553 12
-10 -6 23 -39 72 -108 164 -283 476 -340 610 -49 114 -62 141 -62 129z"/>
<path d="M4846 8020 c48 -133 153 -380 244 -570 48 -102 98 -213 110 -248 22
-59 40 -88 40 -62 0 21 -76 200 -148 350 -75 156 -96 203 -193 435 -69 165
-95 212 -53 95z"/>
<path d="M5364 7900 c0 -69 1 -97 3 -62 2 34 2 90 0 125 -2 34 -3 6 -3 -63z"/>
<path d="M5292 7940 c0 -19 2 -27 5 -17 2 9 2 25 0 35 -3 9 -5 1 -5 -18z"/>
<path d="M5303 7840 c0 -30 2 -43 4 -27 2 15 2 39 0 55 -2 15 -4 2 -4 -28z"/>
<path d="M4321 7843 c-3 -67 72 -283 150 -434 48 -92 65 -116 75 -107 4 5 0
16 -8 25 -48 54 -176 355 -202 476 -8 34 -14 52 -15 40z"/>
<path d="M5312 7750 c0 -19 2 -27 5 -17 2 9 2 25 0 35 -3 9 -5 1 -5 -18z"/>
<path d="M5321 7688 c-1 -34 15 -78 29 -78 5 0 10 21 9 48 -1 36 -3 41 -8 22
l-7 -25 -11 30 -11 30 -1 -27z"/>
<path d="M6830 7632 c0 -47 -3 -53 -30 -67 -56 -29 -62 -71 -30 -197 24 -95
60 -172 106 -223 19 -21 34 -47 34 -57 0 -53 -58 -91 -169 -110 -65 -11 -72
-10 -92 8 l-22 19 12 -22 c10 -19 20 -23 60 -23 54 0 61 -8 61 -64 0 -31 -3
-33 -57 -50 -90 -28 -223 -93 -223 -109 0 -16 100 -103 138 -120 17 -8 22 -16
18 -31 -3 -12 -6 -57 -6 -102 0 -92 -8 -109 -65 -129 l-40 -14 33 -1 c22 0 41
8 57 25 22 21 25 33 26 107 1 113 8 132 44 136 49 6 58 20 52 83 -5 54 -4 57
29 83 37 29 47 79 19 90 -10 4 -15 20 -15 51 0 40 3 47 28 56 73 29 98 46 115
82 18 36 18 39 1 65 -9 14 -26 36 -36 47 -57 60 -129 278 -114 340 4 14 24 36
46 50 39 25 40 26 33 73 -8 64 -13 66 -13 4z m-45 -792 c11 -18 -23 -59 -63
-76 -39 -16 -192 -28 -192 -14 0 10 76 46 160 76 75 26 86 28 95 14z m-59
-147 c4 -28 2 -48 -6 -58 -15 -18 -62 -20 -93 -4 -30 16 -127 90 -127 98 0 3
49 6 110 7 l109 0 7 -43z"/>
<path d="M6495 7663 c-98 -4 -142 -12 -124 -24 8 -5 49 -6 92 -3 83 6 131 -5
142 -33 9 -25 0 -27 -64 -13 -59 12 -61 12 -91 -14 -31 -26 -45 -31 -105 -40
-16 -2 -4 -3 28 -2 47 2 63 8 86 30 26 25 30 26 76 16 27 -6 61 -8 75 -5 16 4
42 -1 63 -11 42 -20 67 -13 67 18 0 19 -14 29 -71 56 -94 43 -101 33 -10 -12
72 -37 89 -56 49 -56 -28 0 -73 26 -113 66 -28 27 -35 29 -100 27z"/>
<path d="M6711 7509 c-1 -33 -26 -55 -73 -63 -21 -4 -42 -14 -47 -23 -8 -16
-18 -15 -110 11 -56 16 -104 27 -106 24 -5 -5 173 -58 194 -58 8 0 29 -10 48
-21 40 -25 30 -39 -27 -39 -67 0 -140 27 -192 70 -27 23 -52 40 -55 36 -6 -5
40 -48 84 -77 35 -23 152 -43 207 -35 25 4 46 10 46 14 0 4 -18 18 -40 32 -22
14 -39 29 -37 35 2 5 23 15 47 21 48 12 74 41 67 76 -4 22 -4 22 -6 -3z"/>
<path d="M5750 7381 c0 -6 4 -13 10 -16 6 -3 7 1 4 9 -7 18 -14 21 -14 7z"/>
<path d="M5776 7340 c14 -28 66 -91 71 -86 3 3 -6 18 -21 33 -14 15 -33 37
-42 48 -8 11 -12 13 -8 5z"/>
<path d="M5860 7243 c0 -5 10 -15 23 -23 68 -44 126 -77 157 -89 67 -27 135
-63 158 -84 19 -18 22 -19 16 -4 -3 10 -69 49 -148 88 -77 39 -156 82 -173 95
-18 14 -33 21 -33 17z"/>
<path d="M5517 7153 c-14 -189 -19 -318 -14 -313 6 6 30 390 24 396 -2 3 -7
-35 -10 -83z"/>
<path d="M4631 7148 c38 -72 199 -300 199 -282 0 12 -194 303 -203 304 -4 0
-2 -10 4 -22z"/>
<path d="M5060 7114 c0 -5 7 -18 15 -28 8 -11 15 -16 15 -10 0 5 -7 18 -15 28
-8 11 -15 16 -15 10z"/>
<path d="M4796 7097 c3 -10 9 -15 12 -12 3 3 0 11 -7 18 -10 9 -11 8 -5 -6z"/>
<path d="M4412 7050 c0 -19 2 -27 5 -17 2 9 2 25 0 35 -3 9 -5 1 -5 -18z"/>
<path d="M4523 7035 c0 -22 2 -30 4 -17 2 12 2 30 0 40 -3 9 -5 -1 -4 -23z"/>
<path d="M4896 6933 c172 -279 284 -551 354 -856 21 -96 54 -157 84 -157 6 0
32 -21 56 -46 25 -25 70 -62 100 -81 30 -20 84 -64 119 -97 36 -34 59 -53 52
-43 -16 20 -8 35 11 20 11 -9 75 -45 158 -89 46 -24 115 -52 145 -59 17 -3 5
4 -26 18 -221 94 -589 344 -589 399 0 6 -5 6 -14 -1 -11 -9 -18 -8 -31 5 -22
23 -32 50 -56 158 -42 194 -143 470 -230 633 -55 105 -200 333 -211 333 -4 0
32 -62 78 -137z"/>
<path d="M4483 7010 c0 -30 2 -43 4 -27 2 15 2 39 0 55 -2 15 -4 2 -4 -28z"/>
<path d="M5106 7037 c3 -10 9 -15 12 -12 3 3 0 11 -7 18 -10 9 -11 8 -5 -6z"/>
<path d="M4326 7018 c-3 -13 -5 -57 -4 -98 l1 -75 8 94 c9 95 7 122 -5 79z"/>
<path d="M4402 6920 c0 -19 2 -27 5 -17 2 9 2 25 0 35 -3 9 -5 1 -5 -18z"/>
<path d="M4473 6870 c0 -41 2 -58 4 -37 2 20 2 54 0 75 -2 20 -4 3 -4 -38z"/>
<path d="M4512 6910 c0 -19 2 -27 5 -17 2 9 2 25 0 35 -3 9 -5 1 -5 -18z"/>
<path d="M4603 6840 c0 -25 2 -35 4 -22 2 12 2 32 0 45 -2 12 -4 2 -4 -23z"/>
<path d="M4313 6795 c0 -22 2 -30 4 -17 2 12 2 30 0 40 -3 9 -5 -1 -4 -23z"/>
<path d="M4392 6800 c0 -19 2 -27 5 -17 2 9 2 25 0 35 -3 9 -5 1 -5 -18z"/>
<path d="M5630 6823 c-1 -50 77 -140 180 -205 36 -22 83 -53 106 -68 22 -15
52 -30 67 -34 15 -3 27 -11 27 -16 0 -6 7 -10 15 -10 8 0 38 -13 67 -28 29
-16 105 -50 168 -76 93 -39 128 -49 185 -51 l70 -3 -60 7 c-87 11 -113 24
-136 73 -18 40 -19 40 -14 11 4 -18 3 -33 -2 -33 -16 0 -135 50 -208 88 -291
150 -412 237 -451 326 -7 17 -13 26 -14 19z"/>
<path d="M4691 6794 c0 -11 3 -14 6 -6 3 7 2 16 -1 19 -3 4 -6 -2 -5 -13z"/>
<path d="M5487 6725 c-16 -180 -17 -256 -1 -120 8 72 13 148 12 170 -2 24 -6
4 -11 -50z"/>
<path d="M4463 6740 c0 -30 2 -43 4 -27 2 15 2 39 0 55 -2 15 -4 2 -4 -28z"/>
<path d="M4675 6715 c-4 -25 -5 -48 -2 -51 2 -3 8 16 12 41 3 26 4 49 2 52 -3
3 -9 -16 -12 -42z"/>
<path d="M4594 6716 c-3 -7 -4 -35 -2 -62 l3 -49 5 63 c5 63 4 73 -6 48z"/>
<path d="M4302 6690 c0 -19 2 -27 5 -17 2 9 2 25 0 35 -3 9 -5 1 -5 -18z"/>
<path d="M4383 6680 c0 -25 2 -35 4 -22 2 12 2 32 0 45 -2 12 -4 2 -4 -23z"/>
<path d="M4764 6666 c-3 -21 -4 -39 -1 -42 2 -3 8 11 11 32 4 20 5 38 2 41 -2
3 -8 -11 -12 -31z"/>
<path d="M6251 6674 c0 -11 3 -14 6 -6 3 7 2 16 -1 19 -3 4 -6 -2 -5 -13z"/>
<path d="M4293 6615 c0 -22 2 -30 4 -17 2 12 2 30 0 40 -3 9 -5 -1 -4 -23z"/>
<path d="M4452 6600 c0 -19 2 -27 5 -17 2 9 2 25 0 35 -3 9 -5 1 -5 -18z"/>
<path d="M4372 6595 c0 -16 2 -22 5 -12 2 9 2 23 0 30 -3 6 -5 -1 -5 -18z"/>
<path d="M4661 6604 c0 -11 3 -14 6 -6 3 7 2 16 -1 19 -3 4 -6 -2 -5 -13z"/>
<path d="M4806 6500 c-16 -61 -27 -112 -25 -115 7 -6 62 202 57 215 -2 6 -16
-39 -32 -100z"/>
<path d="M4740 6535 c-6 -31 -10 -59 -7 -61 2 -2 9 21 16 52 6 32 9 59 7 61
-2 3 -10 -21 -16 -52z"/>
<path d="M4283 6535 c0 -22 2 -30 4 -17 2 12 2 30 0 40 -3 9 -5 -1 -4 -23z"/>
<path d="M4647 6525 c-4 -22 -6 -53 -6 -70 1 -16 5 -3 10 30 10 67 6 102 -4
40z"/>
<path d="M6280 6529 c0 -13 5 -31 10 -39 7 -11 8 -5 4 20 -8 43 -14 51 -14 19z"/>
<path d="M4355 6500 c-4 -23 -5 -43 -2 -46 2 -3 7 14 11 37 4 23 5 44 2 46 -2
2 -7 -14 -11 -37z"/>
<path d="M4442 6510 c0 -19 2 -27 5 -17 2 9 2 25 0 35 -3 9 -5 1 -5 -18z"/>
<path d="M4272 6450 c0 -19 2 -27 5 -17 2 9 2 25 0 35 -3 9 -5 1 -5 -18z"/>
<path d="M6006 6448 c-9 -43 -2 -45 11 -3 6 19 8 35 3 35 -4 0 -10 -14 -14
-32z"/>
<path d="M4710 6395 c-7 -36 -10 -68 -7 -71 2 -3 10 25 16 62 7 36 10 68 8 71
-3 2 -10 -26 -17 -62z"/>
<path d="M4483 6405 c0 -27 2 -38 4 -22 2 15 2 37 0 50 -2 12 -4 0 -4 -28z"/>
<path d="M4861 6434 c-3 -43 -47 -270 -72 -373 -16 -68 -28 -125 -25 -128 12
-13 113 473 103 499 -3 7 -6 8 -6 2z"/>
<path d="M5462 6415 c0 -16 2 -22 5 -12 2 9 2 23 0 30 -3 6 -5 -1 -5 -18z"/>
<path d="M4633 6360 c0 -25 2 -35 4 -22 2 12 2 32 0 45 -2 12 -4 2 -4 -23z"/>
<path d="M5992 6360 c0 -19 2 -27 5 -17 2 9 2 25 0 35 -3 9 -5 1 -5 -18z"/>
<path d="M4766 6339 c-8 -42 0 -50 9 -9 4 17 5 34 2 36 -2 3 -7 -10 -11 -27z"/>
<path d="M5457 6333 c-4 -3 -6 -31 -6 -62 l2 -56 7 45 c4 25 10 53 15 63 7 17
-5 24 -18 10z"/>
<path d="M4916 6239 c-4 -23 -5 -44 -2 -46 2 -2 7 14 11 37 4 23 5 43 2 46 -2
3 -7 -14 -11 -37z"/>
<path d="M5983 6230 c0 -30 2 -43 4 -27 2 15 2 39 0 55 -2 15 -4 2 -4 -28z"/>
<path d="M5597 6251 c-4 -17 -3 -21 5 -13 5 5 8 16 6 23 -3 8 -7 3 -11 -10z"/>
<path d="M4736 6214 c-4 -14 -5 -28 -3 -31 3 -2 8 8 11 23 4 14 5 28 3 31 -3
2 -8 -8 -11 -23z"/>
<path d="M4682 6205 c0 -16 2 -22 5 -12 2 9 2 23 0 30 -3 6 -5 -1 -5 -18z"/>
<path d="M4976 6149 c-4 -23 -5 -44 -2 -46 2 -2 7 14 11 37 4 23 5 43 2 46 -2
3 -7 -14 -11 -37z"/>
<path d="M4890 6123 c-7 -32 -15 -65 -17 -73 -4 -13 -3 -13 5 0 12 19 36 120
30 126 -3 2 -11 -22 -18 -53z"/>
<path d="M4716 6144 c-4 -14 -5 -28 -3 -31 3 -2 8 8 11 23 4 14 5 28 3 31 -3
2 -8 -8 -11 -23z"/>
<path d="M5441 6124 c0 -11 3 -14 6 -6 3 7 2 16 -1 19 -3 4 -6 -2 -5 -13z"/>
<path d="M6017 6015 c6 -136 11 -156 13 -50 1 59 4 74 10 58 14 -35 22 -27 15
15 l-7 37 32 -45 c17 -25 50 -81 72 -125 41 -78 42 -82 42 -185 1 -58 -2 -141
-6 -185 -4 -44 -5 -75 -2 -68 3 7 11 75 17 152 l12 140 59 -147 c63 -157 156
-356 229 -489 30 -53 41 -84 34 -87 -7 -2 -1 -5 11 -5 24 -1 24 -1 -11 62 -19
34 -53 94 -75 134 -51 92 -152 320 -246 559 -48 122 -113 238 -162 293 l-42
46 5 -110z"/>
<path d="M4962 6070 c0 -14 2 -19 5 -12 2 6 2 18 0 25 -3 6 -5 1 -5 -13z"/>
<path d="M5464 6081 c15 -24 285 -192 378 -234 77 -36 58 -15 -26 28 -93 47
-227 127 -261 155 -33 27 -99 65 -91 51z"/>
<path d="M4952 6020 c0 -14 2 -19 5 -12 2 6 2 18 0 25 -3 6 -5 1 -5 -13z"/>
<path d="M4929 5951 c-12 -29 -13 -39 -3 -48 9 -9 13 -2 19 34 8 57 4 61 -16
14z"/>
<path d="M6061 5954 c0 -11 3 -14 6 -6 3 7 2 16 -1 19 -3 4 -6 -2 -5 -13z"/>
<path d="M6077 5870 c3 -36 7 -67 9 -69 7 -8 2 73 -6 104 -5 19 -6 6 -3 -35z"/>
<path d="M6007 5848 c-4 -20 -11 -38 -15 -40 -14 -6 -52 -75 -52 -94 1 -18 1
-18 16 1 29 36 66 124 62 147 -3 18 -5 15 -11 -14z"/>
<path d="M4922 5840 c0 -19 2 -27 5 -17 2 9 2 25 0 35 -3 9 -5 1 -5 -18z"/>
<path d="M5918 5823 c7 -3 16 -2 19 1 4 3 -2 6 -13 5 -11 0 -14 -3 -6 -6z"/>
<path d="M4912 5780 c0 -14 2 -19 5 -12 2 6 2 18 0 25 -3 6 -5 1 -5 -13z"/>
<path d="M5470 5776 c0 -2 8 -10 18 -17 15 -13 16 -12 3 4 -13 16 -21 21 -21
13z"/>
<path d="M6077 5735 c-4 -22 -9 -51 -12 -65 -3 -14 2 -7 10 15 9 22 14 51 13
65 -3 19 -5 16 -11 -15z"/>
<path d="M5091 5744 c0 -11 3 -14 6 -6 3 7 2 16 -1 19 -3 4 -6 -2 -5 -13z"/>
<path d="M5101 5709 c-1 -25 46 -206 59 -226 10 -15 10 -14 4 7 -3 14 -19 72
-34 130 -16 58 -29 98 -29 89z"/>
<path d="M6040 5608 c-8 -21 -18 -38 -22 -38 -4 0 -8 -12 -7 -27 0 -25 3 -22
25 22 13 27 23 57 21 65 -2 8 -9 -2 -17 -22z"/>
<path d="M5410 5611 c0 -6 4 -13 10 -16 6 -3 7 1 4 9 -7 18 -14 21 -14 7z"/>
<path d="M5680 5501 c0 -6 4 -13 10 -16 6 -3 7 1 4 9 -7 18 -14 21 -14 7z"/>
<path d="M5480 5480 c6 -11 13 -20 16 -20 2 0 0 9 -6 20 -6 11 -13 20 -16 20
-2 0 0 -9 6 -20z"/>
<path d="M5176 5440 c3 -14 11 -32 16 -40 6 -10 7 -7 2 10 -3 14 -11 32 -16
40 -6 10 -7 7 -2 -10z"/>
<path d="M5506 5437 c3 -10 9 -15 12 -12 3 3 0 11 -7 18 -10 9 -11 8 -5 -6z"/>
<path d="M6166 5414 c-4 -14 -5 -28 -3 -31 3 -2 8 8 11 23 4 14 5 28 3 31 -3
2 -8 -8 -11 -23z"/>
<path d="M5917 5379 c7 -7 15 -10 18 -7 3 3 -2 9 -12 12 -14 6 -15 5 -6 -5z"/>
<path d="M5750 5365 c0 -5 5 -17 10 -25 5 -8 10 -10 10 -5 0 6 -5 17 -10 25
-5 8 -10 11 -10 5z"/>
<path d="M5950 5356 c0 -2 8 -10 18 -17 15 -13 16 -12 3 4 -13 16 -21 21 -21
13z"/>
<path d="M5999 5318 c26 -34 351 -258 374 -258 4 0 5 5 2 10 -3 6 -12 10 -20
10 -7 0 -20 6 -27 13 -7 8 -24 20 -38 27 -22 12 -186 127 -270 189 -19 14 -29
18 -21 9z"/>
<path d="M5520 5136 c0 -9 105 -35 160 -40 49 -5 47 -4 -20 10 -41 9 -77 19
-80 22 -6 8 -60 15 -60 8z"/>
<path d="M5780 5080 c85 -17 116 -21 100 -11 -8 5 -44 11 -80 14 -57 5 -59 5
-20 -3z"/>
<path d="M6088 5053 c7 -3 16 -2 19 1 4 3 -2 6 -13 5 -11 0 -14 -3 -6 -6z"/>
<path d="M6386 5053 c-3 -4 -36 -6 -74 -6 l-67 1 60 -8 c33 -4 96 -8 140 -8
76 0 78 1 28 8 -29 4 -59 10 -67 13 -8 3 -17 3 -20 0z"/>
<path d="M4258 3893 c-7 -17 -117 -103 -196 -153 -50 -32 -78 -56 -71 -60 19
-13 293 92 331 127 25 22 23 59 -4 77 -24 17 -54 21 -60 9z"/>
<path d="M1452 3540 c-18 -4 -41 -15 -51 -24 -10 -9 -66 -28 -124 -41 -57 -13
-128 -35 -156 -50 -131 -66 -297 -306 -357 -516 -63 -217 4 -407 216 -619 101
-102 238 -200 306 -220 28 -8 87 -11 180 -8 120 4 149 9 213 32 124 47 204 95
311 187 112 96 183 202 231 344 30 89 33 260 6 312 -9 18 -17 45 -17 60 -1 67
-72 193 -165 292 -182 194 -416 293 -593 251z m107 -101 c195 -33 393 -223
452 -434 9 -34 14 -103 14 -210 0 -188 -17 -258 -86 -365 -71 -110 -156 -183
-296 -254 -47 -23 -63 -26 -165 -26 l-113 0 -141 143 c-107 109 -147 156 -168
201 -16 33 -44 82 -63 109 l-34 49 3 168 3 168 44 86 c103 203 238 327 392
361 81 17 80 17 158 4z"/>
<path d="M7170 3534 c-51 -11 -140 -16 -280 -17 -180 -2 -209 -4 -233 -20 -24
-15 -28 -24 -25 -55 l3 -36 66 -11 c84 -13 116 -34 126 -82 4 -21 8 -249 8
-508 0 -430 -2 -473 -18 -510 -27 -59 -44 -74 -119 -96 l-68 -21 0 -46 0 -47
268 0 c239 0 271 2 295 18 39 25 34 48 -23 91 -59 45 -102 98 -118 145 -16 45
-17 917 -1 958 25 67 110 126 209 144 56 10 74 9 121 -4 133 -39 199 -175 199
-410 0 -86 -4 -110 -24 -152 -13 -27 -34 -60 -47 -72 -29 -27 -101 -59 -151
-68 -42 -8 -44 -12 -24 -40 12 -16 23 -17 107 -12 166 10 253 60 307 176 21
46 26 74 30 176 14 354 -108 492 -447 510 -56 3 -112 -1 -161 -11z"/>
<path d="M9335 3542 c-40 -3 -65 -16 -65 -33 0 -5 3 -8 8 -8 44 7 39 -20 -7
-36 -33 -11 -35 -14 -81 -168 -30 -98 -70 -203 -108 -279 -33 -68 -77 -165
-97 -217 -21 -52 -87 -194 -147 -315 l-110 -221 4 -85 c5 -95 32 -171 68 -190
30 -16 93 16 154 80 53 55 65 59 91 30 11 -12 31 -20 52 -20 37 0 40 6 18 36
-15 23 -45 37 -111 53 -25 7 -58 28 -88 57 -41 39 -47 49 -41 72 11 46 72 166
99 195 l25 27 234 0 c223 0 236 -1 261 -21 65 -51 132 -269 94 -307 -7 -7 -40
-12 -79 -12 -73 0 -96 -14 -84 -49 16 -51 15 -51 346 -51 l309 0 0 38 c0 48
-25 62 -108 62 -89 0 -113 24 -153 158 -12 37 -37 93 -56 124 -39 66 -60 120
-190 498 -125 365 -183 543 -183 563 0 21 -7 23 -55 19z m15 -46 c0 -3 -4 -8
-10 -11 -5 -3 -10 -1 -10 4 0 6 5 11 10 11 6 0 10 -2 10 -4z m-10 -70 c0 -8
-6 -16 -13 -19 -19 -7 -41 8 -33 22 10 16 46 14 46 -3z m-60 -339 c0 -7 13
-38 29 -68 41 -75 132 -311 127 -326 -11 -27 -159 -43 -318 -34 -48 3 -48 3
-48 37 0 19 7 48 15 64 8 16 27 62 41 102 40 112 111 238 135 238 10 0 19 -6
19 -13z m480 -987 c0 -5 -2 -10 -4 -10 -3 0 -8 5 -11 10 -3 6 -1 10 4 10 6 0
11 -4 11 -10z"/>
<path d="M2450 3505 c-13 -15 -11 -20 9 -36 12 -10 42 -24 64 -30 64 -17 95
-36 112 -69 22 -43 23 -1092 0 -1146 -15 -37 -48 -56 -118 -69 -34 -7 -77 -43
-77 -67 0 -5 218 -7 523 -6 480 3 525 4 550 21 15 9 58 64 97 122 54 80 70
113 70 140 0 21 -5 35 -12 35 -7 0 -47 -33 -89 -73 -100 -96 -115 -100 -429
-137 -41 -5 -119 -9 -172 -9 -87 -1 -99 1 -121 22 l-23 22 6 405 c4 223 3 412
-1 421 -13 26 10 320 27 346 14 22 47 34 134 50 48 9 63 31 39 60 -12 13 -30
15 -124 8 -60 -4 -123 -6 -140 -6 -16 1 -93 4 -171 7 -124 5 -142 3 -154 -11z"/>
<path d="M3926 3508 c-41 -23 -5 -80 69 -106 l50 -18 9 -89 c11 -107 11 -115
4 -507 l-6 -306 29 -28 c39 -37 38 -73 -1 -102 -26 -20 -30 -29 -30 -73 0 -66
-13 -89 -50 -89 -62 0 -105 -35 -79 -66 32 -39 65 -44 306 -44 l233 0 0 50 0
50 -47 1 c-68 0 -114 19 -135 54 -16 28 -17 77 -20 591 -2 439 0 564 10 576 7
9 29 18 50 22 20 3 47 13 60 22 22 15 22 17 6 35 -9 11 -34 24 -56 29 -46 13
-379 11 -402 -2z"/>
<path d="M4744 3511 c-42 -11 -54 -19 -54 -40 0 -35 42 -61 98 -61 74 0 76 -4
82 -260 3 -145 9 -222 18 -237 17 -30 15 -78 -4 -94 -14 -11 -15 -44 -8 -295
l7 -282 -26 -26 c-23 -23 -32 -25 -67 -20 -69 11 -95 -42 -45 -91 23 -24 30
-25 147 -25 206 1 308 21 308 61 0 20 -35 35 -115 49 -95 16 -95 16 -95 251 0
171 -2 199 -16 207 -14 8 -15 37 -8 270 4 144 10 262 15 262 15 0 50 -59 105
-177 62 -133 77 -153 111 -153 28 0 66 -66 45 -79 -14 -9 13 -93 77 -241 95
-218 150 -307 182 -295 21 8 63 87 112 216 49 127 86 203 127 264 14 22 32 56
40 75 91 238 204 440 240 428 8 -2 13 -37 14 -103 1 -79 4 -100 15 -100 24 0
24 -23 0 -35 -21 -12 -21 -17 -15 -94 18 -220 23 -372 13 -390 -6 -13 -8 -68
-4 -149 5 -114 4 -129 -11 -133 -9 -3 -30 -12 -45 -20 -16 -7 -42 -14 -58 -14
-46 0 -69 -17 -69 -50 0 -25 5 -30 38 -39 20 -6 114 -11 207 -11 152 0 173 2
203 20 55 33 37 80 -30 80 -35 0 -38 2 -38 29 0 17 -5 33 -10 36 -7 4 -10 111
-9 313 1 174 -3 320 -8 337 -9 28 -12 30 -56 27 -42 -3 -47 -1 -47 17 0 16 6
21 25 21 18 0 25 5 25 20 0 15 7 20 29 20 l29 0 5 133 c2 72 4 156 4 186 0 44
4 58 23 73 26 21 60 23 79 6 10 -11 18 -6 42 22 16 19 29 38 29 42 0 15 -64
47 -105 53 -58 9 -208 -11 -260 -34 -50 -22 -59 -38 -147 -254 -22 -54 -59
-129 -83 -166 -45 -70 -65 -111 -141 -291 -72 -170 -86 -189 -139 -190 -29 0
-31 2 -42 63 -7 35 -34 110 -61 168 -89 188 -109 233 -157 359 -103 273 -152
324 -327 340 -107 11 -151 11 -194 1z m225 -190 c8 -15 7 -20 -6 -25 -21 -8
-35 6 -27 27 8 22 21 21 33 -2z m76 -2 c10 -15 -1 -23 -20 -15 -9 3 -13 10
-10 16 8 13 22 13 30 -1z m59 -115 c13 -33 6 -44 -24 -44 -32 0 -47 18 -36 45
7 20 52 19 60 -1z m276 -498 c0 -3 -4 -8 -10 -11 -5 -3 -10 -1 -10 4 0 6 5 11
10 11 6 0 10 -2 10 -4z"/>
<path d="M7984 3506 c-11 -8 -13 -20 -9 -38 9 -34 22 -45 82 -67 l48 -17 9
-84 c5 -47 7 -155 5 -240 -5 -187 -5 -324 0 -365 2 -16 0 -70 -4 -120 l-7 -90
31 -29 c41 -39 41 -75 1 -104 -26 -20 -30 -29 -30 -73 0 -71 -10 -85 -69 -93
-56 -7 -77 -28 -59 -60 22 -40 66 -47 308 -46 l230 1 0 48 0 48 -65 6 c-77 7
-100 18 -119 56 -21 39 -28 1139 -8 1163 7 9 29 18 50 22 53 8 80 30 66 53
-21 34 -71 42 -261 41 -121 0 -188 -5 -199 -12z"/>
</g>
</svg>
